<svg xmlns="http://www.w3.org/2000/svg" width="207.516" height="143.047" viewBox="76.484 224.142 207.516 143.047"><g data-name="undraw_to_do_list_a49b (1)"><path d="M140.559 231.37c7.04-6.342 18.092-7.634 28.152-7.13 31.597 1.587 60.119 16.99 84.79 34.412 8.932 6.308 17.725 13.11 23.528 21.79 11.803 17.682 8.301 42.178-8.109 56.743-5.584 4.957-12.353 8.756-19.301 12.125-12.355 5.988-25.683 10.794-39.708 12.163-10 .975-20.115.18-30.065-1.178-27.775-3.804-55.038-12.213-77.89-26.606-10.028-6.311-19.475-14.158-23.605-24.374-4.131-10.215-1.487-23.148 8.746-29.192 4.233-2.5 9.293-3.628 14.248-4.69 7.293-1.558 14.702-3.097 21.284-6.269 6.798-3.276 14.846-9.612 13.5-16.864-1.443-7.775-2.602-14.609 4.43-20.93Z" fill="#518aff" fill-rule="evenodd" data-name="Path 141"/><path d="M122.588 304.568s1.862-1.334 3.79-.51c0 0-.54 1.146-2.94 1.132l-.85-.622Z" fill="#518aff" fill-rule="evenodd" data-name="Path 142"/><path d="M122.356 304.646s-.497 2.236 1.018 3.687c0 0 .841-.947-.114-3.149l-.904-.538Z" fill="#518aff" fill-rule="evenodd" data-name="Path 143"/><path d="M119.894 302.61s.068-1.887 4.342-1.425c0 0 .067 1.214-1.402 1.846-1.47.632-2.173.178-2.94-.42Z" fill="#518aff" fill-rule="evenodd" data-name="Path 144"/><path d="M119.63 302.607s-1.776.647-.02 4.573c0 0 1.175-.31 1.324-1.904.149-1.593-.501-2.12-1.304-2.669Z" fill="#518aff" fill-rule="evenodd" data-name="Path 145"/><path d="M117.12 300.03s-.358-3.09 3.995-2.938c0 0 .415 2.792-3.199 3.653l-.795-.715Z" fill="#518aff" fill-rule="evenodd" data-name="Path 146"/><path d="M114.116 296.643s.462-3.533 4.85-2.655c0 0 .132 3.035-4.103 3.465l-.747-.81Z" fill="#518aff" fill-rule="evenodd" data-name="Path 147"/><path d="M111.88 293.106s.866-3.464 5.208-2.598c0 0-.898 3.116-4.897 3.22l-.31-.622Z" fill="#518aff" fill-rule="evenodd" data-name="Path 148"/><path d="M109.752 289.653s.839-3.592 5.029-2.68c0 0-1.258 3.425-4.736 3.274l-.293-.594Z" fill="#518aff" fill-rule="evenodd" data-name="Path 149"/><path d="M108.338 286.348s.584-4.37 4.49-3.558c0 0-.973 3.993-4.184 4.178l-.306-.62Z" fill="#518aff" fill-rule="evenodd" data-name="Path 150"/><path d="M106.979 282.341s.73-4.409 4.696-3.286c0 0-1.379 4.193-4.4 3.88l-.296-.594Z" fill="#518aff" fill-rule="evenodd" data-name="Path 151"/><path d="M106.088 278.604s1.257-4.43 4.296-4.427c0 0-1.284 4.67-4.009 5.294l-.287-.867Z" fill="#518aff" fill-rule="evenodd" data-name="Path 152"/><path d="M105.474 274.936s1.352-5.327 3.834-5.014c0 0-.921 4.066-3.716 5.832l-.118-.818Z" fill="#518aff" fill-rule="evenodd" data-name="Path 153"/><path d="M105.037 270.55s1.288-4.443 3.716-4.712c0 0-.826 4.355-3.619 5.851l-.097-1.138Z" fill="#518aff" fill-rule="evenodd" data-name="Path 154"/><path d="M104.585 266.47s1.648-4.463 3.254-4.625c0 0-.623 4.356-3.066 5.34l-.188-.715Z" fill="#518aff" fill-rule="evenodd" data-name="Path 155"/><path d="M104.238 262.666s.934-4.815 2.525-5.271c0 0-.07 3.91-2.35 5.621l-.175-.35Z" fill="#518aff" fill-rule="evenodd" data-name="Path 156"/><path d="M103.442 257.702s1.03-3.847 2.308-4.477c0 0-.086 4.49-1.975 5.388l-.333-.911Z" fill="#518aff" fill-rule="evenodd" data-name="Path 157"/><path d="m102.814 254.444-.494-6.695s2.622 4.967.718 7.871l-.224-1.176Z" fill="#518aff" fill-rule="evenodd" data-name="Path 158"/><path d="M100.677 247.853s-1.938-4.83-2.37-5.086c0 0 3.557 3.053 3.377 7.144l-1.007-2.058Z" fill="#518aff" fill-rule="evenodd" data-name="Path 159"/><path d="M117.002 300.012s-3.098-.286-2.837 4.064c0 0 2.801.347 3.572-3.288l-.735-.776Z" fill="#518aff" fill-rule="evenodd" data-name="Path 160"/><path d="M113.967 296.531s-3.56.124-3.1 4.57c0 0 3.008.42 3.836-3.756l-.736-.814Z" fill="#518aff" fill-rule="evenodd" data-name="Path 161"/><path d="M111.857 293.397s-3.29-1.392-5.209 2.6c0 0 3.034 1.147 5.518-1.976l-.31-.624Z" fill="#518aff" fill-rule="evenodd" data-name="Path 162"/><path d="M109.68 289.689s-3.37-1.487-5.167 2.41c0 0 3.493 1.054 5.463-1.818l-.296-.592Z" fill="#518aff" fill-rule="evenodd" data-name="Path 163"/><path d="M108.383 286.44s-3.3-2.92-5.724.255c0 0 3.35 2.378 5.897.416l-.173-.671Z" fill="#518aff" fill-rule="evenodd" data-name="Path 164"/><path d="M107.155 282.23s-3.323-2.989-5.72.36c0 0 3.694 2.415 5.86.285l-.14-.645Z" fill="#518aff" fill-rule="evenodd" data-name="Path 165"/><path d="M106.411 278.462s-2.617-3.79-5.49-2.813c0 0 2.719 4.016 5.497 3.727l-.007-.914Z" fill="#518aff" fill-rule="evenodd" data-name="Path 166"/><path d="M105.547 274.91s-2.677-4.8-4.994-3.86c0 0 1.936 3.692 5.088 4.678l-.094-.819Z" fill="#518aff" fill-rule="evenodd" data-name="Path 167"/><path d="M105.197 270.294s-2.705-3.754-5.08-3.192c0 0 2.239 3.826 5.371 4.298l-.29-1.106Z" fill="#518aff" fill-rule="evenodd" data-name="Path 168"/><path d="M104.852 266.373s-2.146-4.246-3.759-4.222c0 0 1.116 4.256 3.653 4.953l.106-.73Z" fill="#518aff" fill-rule="evenodd" data-name="Path 169"/><path d="M104.314 262.57s-2.371-4.293-4.027-4.24c0 0 1.271 3.7 3.967 4.627l.06-.388Z" fill="#518aff" fill-rule="evenodd" data-name="Path 170"/><path d="M103.805 257.95s-1.787-3.56-3.166-3.917c0 0 .993 4.382 3.02 4.885l.146-.968Z" fill="#518aff" fill-rule="evenodd" data-name="Path 171"/><path d="m102.613 254.326-3.896-5.467s1.155 5.499 4.474 6.515l-.578-1.048Z" fill="#518aff" fill-rule="evenodd" data-name="Path 172"/><path d="M99.852 248.336s-4.384-2.79-4.563-3.262c0 0 2.334 4.056 6.404 4.63l-1.84-1.368Z" fill="#518aff" fill-rule="evenodd" data-name="Path 173"/><path d="M99.545 247.018s-5.093-4.535-6.347-4.481c0 0 4.059.028 6.466 4.226l-.119.255Z" fill="#518aff" fill-rule="evenodd" data-name="Path 174"/><path d="m103.784 258.668-.18.03c-1.2-7.192-2.71-11.41-4.251-11.881l.052-.18c1.63.496 3.15 4.653 4.379 12.031Z" fill="#444053" fill-rule="evenodd" data-name="Path 175"/><path d="m105.804 275.888-.27.033a49.978 49.978 0 0 1-.21-2.048c-.486-5.972-1.097-11.45-1.78-15.548l.15-.2c.684 4.107 1.413 9.746 1.902 15.727.056.682.126 1.366.208 2.036Z" fill="#444053" fill-rule="evenodd" data-name="Path 176"/><path d="M127.766 307.816c-.049-.02-4.89-1.963-10.027-6.845a39.268 39.268 0 0 1-7.515-9.824c-2.462-4.564-4.073-10.228-4.754-15.763l.287.122c1.527 12.424 7.53 20.729 12.213 25.192 5.087 4.838 9.878 6.762 9.923 6.78l-.127.338Z" fill="#444053" fill-rule="evenodd" data-name="Path 177"/><g data-name="Group 15"><path d="M130.102 293.189s2.175-.718 3.772.641c0 0-.857.934-3.145.205l-.627-.846Z" fill="#518aff" fill-rule="evenodd" data-name="Path 178"/><path d="M129.858 293.193s-1.139 1.988-.124 3.822c0 0 1.078-.652.828-3.04l-.704-.782Z" fill="#518aff" fill-rule="evenodd" data-name="Path 179"/><path d="M128.11 290.518s.63-1.781 4.571-.07c0 0-.296 1.18-1.89 1.346-1.592.165-2.124-.48-2.68-1.276Z" fill="#518aff" fill-rule="evenodd" data-name="Path 180"/><path d="M127.86 290.438s-1.885.09-1.379 4.358c0 0 1.216.054 1.832-1.424.616-1.478.151-2.173-.452-2.934Z" fill="#518aff" fill-rule="evenodd" data-name="Path 181"/><path d="M126.234 287.225s.573-3.054 4.685-1.617c0 0-.432 2.79-4.14 2.536l-.545-.92Z" fill="#518aff" fill-rule="evenodd" data-name="Path 182"/><path d="M124.373 283.094s1.49-3.233 5.413-1.092c0 0-.776 2.936-4.948 2.087l-.465-.995Z" fill="#518aff" fill-rule="evenodd" data-name="Path 183"/><path d="M123.288 279.062s1.86-3.053 5.747-.932c0 0-1.796 2.704-5.634 1.616l-.113-.684Z" fill="#518aff" fill-rule="evenodd" data-name="Path 184"/><path d="M122.284 275.13s1.868-3.175 5.602-1.061c0 0-2.218 2.895-5.494 1.717l-.108-.656Z" fill="#518aff" fill-rule="evenodd" data-name="Path 185"/><path d="M121.918 271.554s1.857-3.997 5.348-2.058c0 0-2.117 3.52-5.237 2.743l-.111-.685Z" fill="#518aff" fill-rule="evenodd" data-name="Path 186"/><path d="M121.814 267.325s2.01-3.993 5.46-1.74c0 0-2.563 3.592-5.354 2.396l-.106-.656Z" fill="#518aff" fill-rule="evenodd" data-name="Path 187"/><path d="M122.078 263.487s2.514-3.854 5.416-2.95c0 0-2.616 4.083-5.402 3.864l-.014-.914Z" fill="#518aff" fill-rule="evenodd" data-name="Path 188"/><path d="M122.588 259.807s2.873-4.682 5.152-3.646c0 0-2.09 3.608-5.282 4.461l.13-.815Z" fill="#518aff" fill-rule="evenodd" data-name="Path 189"/><path d="M123.466 255.491s2.554-3.86 4.95-3.394c0 0-2.084 3.913-5.194 4.51l.244-1.116Z" fill="#518aff" fill-rule="evenodd" data-name="Path 190"/><path d="M124.25 251.46s2.901-3.772 4.482-3.446c0 0-1.891 3.973-4.515 4.183l.034-.738Z" fill="#518aff" fill-rule="evenodd" data-name="Path 191"/><path d="M125.05 247.725s2.324-4.31 3.98-4.281c0 0-1.232 3.712-3.917 4.67l-.063-.389Z" fill="#518aff" fill-rule="evenodd" data-name="Path 192"/><path d="M125.767 242.749s2.128-3.366 3.536-3.592c0 0-1.419 4.263-3.488 4.563l-.048-.971Z" fill="#518aff" fill-rule="evenodd" data-name="Path 193"/><path d="m126.137 239.451 1.52-6.54s1.026 5.522-1.657 7.722l.137-1.182Z" fill="#518aff" fill-rule="evenodd" data-name="Path 194"/><path d="M126.061 232.524s-.415-5.187-.749-5.568c0 0 2.49 3.966 1.1 7.827l-.35-2.259Z" fill="#518aff" fill-rule="evenodd" data-name="Path 195"/><path d="M126.124 287.176s-2.873-1.192-3.917 3.039c0 0 2.57 1.164 4.388-2.078l-.47-.96Z" fill="#518aff" fill-rule="evenodd" data-name="Path 196"/><path d="M124.262 282.95s-3.436-.94-4.32 3.441c0 0 2.748 1.297 4.781-2.444l-.461-.997Z" fill="#518aff" fill-rule="evenodd" data-name="Path 197"/><path d="M123.18 279.331s-2.726-2.308-5.747.932c0 0 2.554 2 5.857-.248l-.11-.684Z" fill="#518aff" fill-rule="evenodd" data-name="Path 198"/><path d="M122.207 275.143s-2.777-2.421-5.65.763c0 0 3.02 2.048 5.756-.108l-.106-.655Z" fill="#518aff" fill-rule="evenodd" data-name="Path 199"/><path d="M121.936 271.657s-2.285-3.772-5.543-1.462c0 0 2.491 3.269 5.507 2.155l.036-.693Z" fill="#518aff" fill-rule="evenodd" data-name="Path 200"/><path d="M122.015 267.271s-2.285-3.842-5.568-1.356c0 0 2.81 3.413 5.509 2.017l.059-.66Z" fill="#518aff" fill-rule="evenodd" data-name="Path 201"/><path d="M122.424 263.451s-1.37-4.395-4.403-4.31c0 0 1.4 4.644 4.14 5.194l.263-.884Z" fill="#518aff" fill-rule="evenodd" data-name="Path 202"/><path d="M122.656 259.803s-1.128-5.379-3.619-5.17c0 0 .75 4.102 3.466 5.982l.153-.812Z" fill="#518aff" fill-rule="evenodd" data-name="Path 203"/><path d="M123.698 255.294s-1.466-4.39-3.903-4.56c0 0 1 4.319 3.85 5.702l.053-1.142Z" fill="#518aff" fill-rule="evenodd" data-name="Path 204"/><path d="M124.535 251.447s-.787-4.692-2.335-5.15c0 0-.2 4.395 2.015 5.818l.32-.668Z" fill="#518aff" fill-rule="evenodd" data-name="Path 205"/><path d="M125.15 247.655s-.985-4.804-2.582-5.244c0 0 .113 3.91 2.412 5.596l.17-.352Z" fill="#518aff" fill-rule="evenodd" data-name="Path 206"/><path d="M126.038 243.1s-.647-3.929-1.857-4.682c0 0-.36 4.48 1.437 5.568l.42-.885Z" fill="#518aff" fill-rule="evenodd" data-name="Path 207"/><path d="m125.98 239.272-2.094-6.38s-.539 5.593 2.335 7.552l-.24-1.172Z" fill="#518aff" fill-rule="evenodd" data-name="Path 208"/><path d="M125.127 232.74s-3.364-3.971-3.389-4.473c0 0 1.03 4.568 4.736 6.326l-1.347-1.853Z" fill="#518aff" fill-rule="evenodd" data-name="Path 209"/><path d="M125.226 231.39s-3.515-5.845-4.727-6.169c0 0 3.865 1.238 4.907 5.956l-.18.214Z" fill="#518aff" fill-rule="evenodd" data-name="Path 210"/><path d="m125.808 243.762-.18-.026c.994-7.221.809-11.7-.524-12.607l.102-.15c1.414.965 1.62 5.385.602 12.783Z" fill="#444053" fill-rule="evenodd" data-name="Path 211"/><path d="m122.611 260.823-.267-.048c.122-.666.258-1.345.409-2.019 1.313-5.846 2.36-11.255 2.926-15.372l.203-.147c-.568 4.13-1.55 9.725-2.863 15.58-.151.66-.288 1.335-.408 2.006Z" fill="#444053" fill-rule="evenodd" data-name="Path 212"/><path d="M134.082 297.83c-.04-.032-4.084-3.328-7.543-9.519a39.236 39.236 0 0 1-4.25-11.615c-.993-5.09-.847-10.977.151-16.463l.238.2c-2.236 12.318 1.023 22.034 4.173 27.69 3.413 6.131 7.414 9.393 7.456 9.425l-.225.282Z" fill="#444053" fill-rule="evenodd" data-name="Path 213"/></g><path d="M258.661 359.58s-7.593-.458-6.697 4.863c0 0-.18.94.674 1.367 0 0 .014-.395.78-.26.271.045.548.059.824.04a1.728 1.728 0 0 0 1.009-.418s2.134-.881 2.963-4.37c0 0 .615-.76.591-.957l-1.282.54s.438.924.093 1.691c0 0-.041-1.658-.287-1.616-.05.009-.666.321-.666.321s.754 1.617.18 2.78c0 0 .215-1.984-.421-2.665l-.898.528s.88 1.663.284 3.02c0 0 .152-2.082-.474-2.892l-.818.637s.828 1.64.324 2.764c0 0-.067-2.422-.5-2.606 0 0-.718.63-.824.898 0 0 .566 1.19.216 1.818 0 0-.216-1.617-.394-1.617 0 0-.718 1.07-.786 1.796 0 0 .03-1.09.614-1.903-.41.077-.79.273-1.09.564 0 0 .111-.756 1.257-.823 0 0 .589-.81.747-.86 0 0-1.151-.095-1.848.214 0 0 .614-.719 2.058-.39l.806-.66s-1.514-.206-2.155.022c0 0 .738-.63 2.373-.17l.878-.525s-1.29-.278-2.058-.18c0 0 .812-.438 2.317.036l.628-.281s-.946-.18-1.223-.216c-.276-.036-.29-.106-.29-.106a3.272 3.272 0 0 1 1.774.198s1.345-.498 1.321-.582Z" fill="#518aff" fill-rule="evenodd" data-name="Path 214"/><path d="M248.058 366.173a5.374.909 0 1 1 0 .1z" fill="#518aff" fill-rule="evenodd" data-name="Ellipse 9"/><path d="M273.227 345.558s-4.28-.256-3.772 2.743c-.053.312.1.623.38.77 0 0 .008-.222.44-.147.153.027.31.035.464.023a.96.96 0 0 0 .568-.235s1.203-.497 1.672-2.464c0 0 .347-.43.332-.539l-.718.31s.246.52.052.953c0 0-.023-.936-.162-.913-.028 0-.375.18-.375.18s.424.909.104 1.568c0 0 .122-1.119-.237-1.501l-.508.296s.496.937.16 1.702c0 0 .086-1.172-.268-1.63l-.46.359s.465.925.18 1.559c0 0-.038-1.365-.282-1.47-.175.149-.33.317-.465.502 0 0 .32.671.122 1.025 0 0-.122-.91-.221-.914 0 0-.402.604-.444 1.017.02-.384.14-.755.347-1.078a1.21 1.21 0 0 0-.616.318s.063-.426.718-.463c0 0 .333-.458.42-.485 0 0-.648-.054-1.041.12 0 0 .347-.402 1.16-.221l.456-.37s-.854-.117-1.215.013c0 0 .416-.36 1.338-.097l.495-.297a4.532 4.532 0 0 0-1.162-.1s.458-.246 1.306.021l.36-.16s-.54-.104-.69-.12c-.151-.016-.166-.06-.166-.06a1.853 1.853 0 0 1 1.002.11s.738-.276.726-.325Z" fill="#518aff" fill-rule="evenodd" data-name="Path 215"/><path d="M267.25 349.234a3.03.512 0 1 1 0 .1z" fill="#518aff" fill-rule="evenodd" data-name="Ellipse 10"/><path d="M247.959 348.163s-5.169-.313-4.558 3.31a.882.882 0 0 0 .458.93s0-.268.53-.18c.185.031.374.04.562.03.253-.02.494-.119.686-.285 0 0 1.453-.6 2.018-2.976 0 0 .419-.517.401-.65l-.871.372s.298.63.063 1.153c0 0-.027-1.13-.196-1.103-.034 0-.453.218-.453.218s.512 1.097.126 1.893c0 0 .147-1.351-.285-1.814l-.615.359s.598 1.131.193 2.056c0 0 .104-1.417-.322-1.975l-.557.433s.564 1.115.221 1.882c0 0-.045-1.65-.341-1.775 0 0-.487.43-.56.606 0 0 .384.81.145 1.237 0 0-.145-1.097-.266-1.103 0 0-.485.728-.539 1.227.025-.461.169-.908.419-1.297a1.46 1.46 0 0 0-.742.384s.076-.515.862-.56c0 0 .4-.551.508-.585 0 0-.783-.065-1.257.145 0 0 .417-.487 1.4-.266l.549-.447s-1.03-.142-1.467.015c0 0 .502-.43 1.616-.117l.598-.36s-.878-.19-1.403-.122c0 0 .554-.296 1.577.026l.43-.176s-.643-.126-.832-.146c-.189-.02-.198-.072-.198-.072a2.232 2.232 0 0 1 1.21.135s.906-.345.89-.402Z" fill="#518aff" fill-rule="evenodd" data-name="Path 216"/><path d="M240.741 352.619a3.658.618 0 1 1 0 .1z" fill="#518aff" fill-rule="evenodd" data-name="Ellipse 11"/><path d="m204.731 350.041-18.015 6.97-26.333 10.178c-.993-1.844-2.459-4.368-4.273-7.363-6.236-10.336-16.555-26.412-25.74-40.54-10.352-15.917-19.26-29.358-19.26-29.358l6.449-1.87 52.68-15.279 34.492 77.262Z" fill-rule="evenodd" data-name="Path 217"/><path d="m205.09 348.784-18.015 6.97-26.333 10.178c-.993-1.844-2.459-4.368-4.273-7.363-6.235-10.336-16.555-26.412-25.74-40.54-10.352-15.917-19.26-29.359-19.26-29.359l6.45-1.87 52.68-15.278 34.491 77.262Z" fill="#fff" fill-rule="evenodd" data-name="Path 218"/><path d="m205.09 348.784-18.015 6.97a135.492 135.492 0 0 1-30.606 2.815c-6.235-10.336-16.555-26.412-25.74-40.54l-12.81-31.228 52.68-15.279 34.491 77.262Z" fill-rule="evenodd" data-name="Path 219"/><path d="M218.494 344.448s-27.989 16.556-69.774 12.82l-33.316-81.213 15.964-2.742 55.188-9.478 31.313 79.044.625 1.57Z" fill="#518aff" fill-rule="evenodd" data-name="Path 220"/><path d="M217.869 342.879c-6.591.323-14.214.293-21.886-.622-8.301-.973-16.642-2.988-23.808-6.677-5.984-3.084-11.1-6.433-15.564-10.455-11.604-10.438-18.786-25.37-25.235-51.812l55.187-9.478 31.306 79.044Z" fill-rule="evenodd" data-name="Path 221"/><path d="M238.399 338.339s-20.64 4.044-41.628 1.553c-8.3-.979-16.65-2.989-23.807-6.677-5.985-3.084-11.101-6.434-15.564-10.455-14.368-12.931-21.95-32.727-29.77-72.721 0 0 34.304 8.277 68.197-9.855 0 0 11.431 71.35 42.572 98.155Z" fill="#fff" fill-rule="evenodd" data-name="Path 222"/><path d="M196.771 339.892c-8.3-.979-16.65-2.988-23.807-6.677-5.985-3.084-11.101-6.434-15.564-10.455 12.228-.993 13.987-7.68 13.987-7.68 9.066 14.39 25.384 24.812 25.384 24.812Z" fill-rule="evenodd" data-name="Path 223"/><path d="M145.37 264.723s18.427 2.103 35.674-7.589l1.182 3.795s-16.5 8.228-36.856 8.228v-4.434Z" fill="#518aff" fill-rule="evenodd" data-name="Path 224"/><path d="M145.37 283.453s18.32-1.478 38.713-11.335l.69 1.577s-7.506 9.445-39.403 11.913v-2.155Z" fill-rule="evenodd" data-name="Path 225"/><path d="M147.541 290.76s18.32-1.479 38.713-11.334l.69 1.577s-7.504 9.454-39.403 11.924v-2.168Z" fill-rule="evenodd" data-name="Path 226"/><path d="M149.528 298.634s18.319-1.478 38.712-11.332l.69 1.577s-7.514 9.448-39.402 11.923v-2.168Z" fill-rule="evenodd" data-name="Path 227"/><path d="M151.886 305.384s18.319-1.478 38.713-11.333l.69 1.577s-7.504 9.45-39.403 11.925v-2.17Z" fill-rule="evenodd" data-name="Path 228"/><path d="M154.059 312.697s18.32-1.478 38.713-11.333l.69 1.577s-7.506 9.45-39.403 11.924v-2.168Z" fill-rule="evenodd" data-name="Path 229"/><path d="m187.109 268.945 5.126-1.745 1.745 5.126-5.126 1.745-1.745-5.126z" fill="#518aff" fill-rule="evenodd" data-name="Rectangle 13"/><path d="m190.025 276.57 5.126-1.744 1.745 5.126-5.126 1.745-1.745-5.126z" fill="#518aff" fill-rule="evenodd" data-name="Rectangle 14"/><path d="m194.7 291.244 5.126-1.745 1.745 5.126-5.126 1.745-1.745-5.126z" fill="#518aff" fill-rule="evenodd" data-name="Rectangle 15"/><path d="m197.383 299.12 5.126-1.746 1.745 5.126-5.126 1.745-1.745-5.126z" fill="#518aff" fill-rule="evenodd" data-name="Rectangle 16"/><path d="m192.403 284.493 5.126-1.745 1.745 5.126-5.126 1.745-1.745-5.126z" fill="#518aff" fill-rule="evenodd" data-name="Rectangle 17"/><path d="m803.136 315.576-.192-.18c.495-.1.962-.145.962-.145s-1.7-6.153-4.569-8.206c-1.419-1.014-2.6-2.704-3.436-4.154a62.813 62.813 0 0 0-5.116-7.502l-.518-.652-.222-.283c.31-.47.691-.918.648-1.464v-.01a.677.677 0 0 0 0-.087 1.005 1.005 0 0 0-.036-.2l-.02.031c-.242-.704-1.174-1.015-1.866-1.403-1.616-.91-2.307-2.9-2.652-4.75-.27-1.437-.493-3.053-1.617-3.978-.718-.595-1.695-.79-2.419-1.381-.686-.56-1.069-1.41-1.5-2.191-.718-1.302-1.666-2.515-2.918-3.292-1.252-.778-2.841-1.078-4.215-.557-.527.201-1.004.514-1.525.73-1.293.54-2.775.468-4.055 1.037-1.577.7-2.603 2.249-3.54 3.718-.485.76-1.247 1.871-1.68 2.99v-.117a4.278 4.278 0 0 0-.334 1.556 2.34 2.34 0 0 0 .074.675c.194.718.772 1.115 1.458 1.392.04.228.093.455.158.677a6.645 6.645 0 0 0 4.293 4.384c.059.022.12.036.18.054.05.142.121.275.213.395.573.718 1.722.514 2.47-.009.03-.02.059-.045.088-.066.005.101.015.203.032.303.016.086.029.18.047.257.673 3.63 2.397 5.59 2.397 5.59s.16.24.42.638c-.136 2.003.778 3.828 1.834 5.238-.91.526-2.873 1.557-4.087 1.47 0 0-4.462.577-4.979.288-.072-.04-.14.014-.205.136-1.228-.749-5.156-2.907-5.492-.136-.303 2.514 3.276 2.836 4.98 2.848-.077.737-.12 1.326-.12 1.326l7.33-.501 3.816-.562c-.422.558-.898 1.056-1.363 1.298 0 0-3.45 2.793-4.046 2.818-.085 0-.112.084-.1.22-1.45 0-5.964.21-4.712 2.724 1.137 2.279 4.337.702 5.785-.17.341.663.632 1.183.632 1.183l5.914-4.212 1.28-1.078c.435-.02.864-.103 1.274-.246 0 .016.013.033.018.047.046.132.08.268.103.406.359 2.063-.848 6.877-.848 6.877s-2.655 6.769-1.38 7.692c1.276.923.333 4.819.333 4.819.222.374.478.728.765 1.056.135.156.285.298.447.425-.06.162-.108.327-.147.494-.195.83-.121 1.7.21 2.486.876 2.126.343 5.208.343 5.208l-1.72 11.624c-.827-.126-1.894-.23-2.29 0-.61.343-.41 2.073 1.003 2.816-.429.329-.926.557-1.454.67-1.257.287-2.141.47-2.723.582-.038 0-3.017-.657-3.782-.223-.765.435-.397 2.845 1.78 3.436 2.13.576 10.073 1.422 12.361 1.077l.146-.025c1.945-.384.237-2.94.021-3.25a17.087 17.087 0 0 1-.119-1.23c2.17.199 4.311.296 5.294.148.046 0 .09-.014.129-.023 1.722-.341.214-2.6.02-2.874l-.027-.22v-.02c0-.052-.013-.108-.018-.162-.006-.054 0-.091-.015-.14-.014-.048 0-.086-.012-.131l-.022-.275v-.117c0-.071-.009-.143-.012-.217v-.12c0-.108 0-.22-.011-.33v-.879c0-.12.01-.244.018-.368l.01-.133c0-.092.015-.18.024-.273 0-.045 0-.09.014-.135.015-.125.031-.251.049-.379 0-.037.012-.075.018-.113.016-.095.032-.192.05-.289 0-.047.018-.095.029-.144.021-.104.045-.208.07-.312 0-.029.012-.058.02-.086.032-.126.068-.25.106-.374.012-.043.027-.086.041-.13.03-.093.063-.179.097-.276l.043-.115c.048-.122.1-.242.155-.359l.046-.092c.045-.093.094-.18.144-.276l.06-.106c.07-.115.14-.23.216-.34 1.976-2.816 2.497-8.247 2.448-9.428-.048-1.182.236-3.634.59-3.997.237-.242 1.616-2.155 2.44-3.61.15-.265.279-.515.381-.738.585-.203.973-.359.973-.359a8.324 8.324 0 0 1-.294-2.315c.014-1.528.435-3.542 2.17-5.176 2.56-2.414 2.918-4.806 2.952-5.726v-.17c-.005-.17-.014-.252-.014-.252Z" fill-rule="evenodd" fill="url(&quot;#a&quot;)" transform="translate(-552.008 -10.692)" data-name="Path 230"/><path d="M244.302 319.948a30.864 30.864 0 0 1-2.334 3.568c-.338.36-.61 2.786-.562 3.951.046 1.166-.448 6.54-2.335 9.323-1.888 2.784-.918 7.596-.918 7.596l-3.012 1.056h-3.619l-2.493-.746-.657-1.814s.876-.134 3.053-.652a2.825 2.825 0 0 0 2.254-2.562l1.529-10.674s.45-2.694-.293-4.558a3.71 3.71 0 0 1 .244-3.251l.049-.075s2.358-1.863 4.76-3.029c2.129-1.027 4.288-1.515 4.9.308.08.235-.18.84-.566 1.559Z" fill="#a5636d" fill-rule="evenodd" data-name="Path 231"/><path d="M244.302 319.948a30.864 30.864 0 0 1-2.334 3.568c-.338.36-.61 2.786-.562 3.951.046 1.166-.448 6.54-2.335 9.323-1.33 1.963-1.241 4.93-1.078 6.513.07.662.156 1.077.156 1.077l-3.012 1.056h-3.615l-2.493-.74-.657-1.814s.22-.034.718-.13c.5-.098 1.258-.263 2.346-.522a2.825 2.825 0 0 0 2.243-2.562l1.529-10.674s.45-2.694-.293-4.558a3.71 3.71 0 0 1 .244-3.251l.049-.075s2.358-1.863 4.76-3.029c2.129-1.027 4.288-1.515 4.9.308.08.235-.18.84-.566 1.559Z" fill-rule="evenodd" data-name="Path 232"/><path d="m238.153 344.387-3.012 1.057h-3.619l-2.493-.748-.657-1.814s.22-.034.718-.13a1.356 1.356 0 0 0 1.044 1.465l1.415.048c.2 0 .4.011.598.011 1.99.001 3.968-.327 5.851-.972.072.663.155 1.083.155 1.083Z" fill-rule="evenodd" data-name="Path 233"/><path d="m231.547 344.57-1.417-.048s-1.322-.28-.998-1.78c0 0-2.55-.578-3.203-.196-.652.383-.337 2.493 1.505 3.01 1.796.505 8.524 1.247 10.459.943l.123-.021c1.753-.36 0-2.874 0-2.874a18.12 18.12 0 0 1-6.469.967Z" fill="#bebed0" fill-rule="evenodd" data-name="Path 234"/><path d="M240.274 320.36c-.095.191-.198.389-.314.595-.89 1.617-2.315 3.651-2.565 3.915-.38.406-.684 3.143-.636 4.465.049 1.322-.504 7.378-2.634 10.521-1.09 1.617-1.337 3.817-1.319 5.587.006.6.041 1.2.106 1.796.08.731.18 1.188.18 1.188l-3.398 1.19h-4.09l-2.814-.837-.736-2.054s.246-.04.799-.15c.553-.109 1.415-.292 2.647-.583a3.193 3.193 0 0 0 2.538-2.892l1.722-12.045s.509-3.044-.328-5.146a4.13 4.13 0 0 1 .337-3.755s.658-.517 1.649-1.202c.438-.301.946-.635 1.492-.973 2.4-1.485 5.555-3.001 7.068-1.897.333.252.577.604.697 1.004.06.209-.11.681-.401 1.274Z" fill="#a5636d" fill-rule="evenodd" data-name="Path 235"/><path d="m233.083 348.428-3.398 1.191h-4.08l-2.815-.837-.736-2.054s.246-.04.799-.15a1.5 1.5 0 0 0 .478 1.328 1.6 1.6 0 0 0 1.013.38l1.287.042c.225 0 .451.012.676.012 2.247 0 4.479-.371 6.605-1.099.08.731.17 1.187.17 1.187Z" fill-rule="evenodd" data-name="Path 236"/><path d="m225.63 348.633-1.286-.043a1.617 1.617 0 0 1-1.015-.38c-.327-.292-.609-.795-.426-1.64 0 0-2.873-.652-3.615-.221-.742.43-.38 2.814 1.699 3.398 2.035.569 9.62 1.406 11.805 1.065l.138-.025c1.976-.406 0-3.248 0-3.248a20.376 20.376 0 0 1-7.3 1.094Z" fill="#bebed0" fill-rule="evenodd" data-name="Path 237"/><path d="M244.302 319.948c-1.23.429-3.037.998-4.028 1.021a1.8 1.8 0 0 1-.307-.014c-.693-.095-2.836.058-4.8.234-.79.07-1.547.143-2.174.208-.934.097-1.577.167-1.577.167v-.609c.438-.302.947-.636 1.493-.973 2.4-1.486 5.555-3.002 7.067-1.897 2.128-1.027 4.287-1.516 4.9.307.071.232-.187.837-.574 1.556Z" fill-rule="evenodd" data-name="Path 238"/><path d="M250.206 305.783c-.034.91-.375 3.274-2.822 5.662-3.118 3.045-1.796 7.416-1.796 7.416s-3.717 1.46-5.321 1.5a1.8 1.8 0 0 1-.307-.015c-.963-.134-4.785.22-6.981.442-.934.097-1.577.167-1.577.167v-12.931l17.229-4.183 1.56 1.554c.014.128.019.258.015.388Z" fill="#5c5c8e" fill-rule="evenodd" data-name="Path 239"/><g data-name="Group 16"><path d="m231.693 320.795-.284.03v.137s.643-.07 1.577-.167c1.577-.16 3.985-.384 5.578-.45-1.103-.101-4.745.235-6.871.45Z" fill-rule="evenodd" data-name="Path 241"/><path d="m250.199 305.402-1.561-1.556-1.04.26 1.308 1.303c.008.13.008.26 0 .39-.035.908-.376 3.274-2.822 5.662-3.118 3.043-1.796 7.416-1.796 7.416s-3.076 1.207-4.838 1.457c.168 0 .336.008.503.027a1.8 1.8 0 0 0 .307.016c1.603-.04 5.321-1.5 5.321-1.5s-1.329-4.373 1.796-7.416c2.446-2.388 2.788-4.754 2.822-5.662.009-.132.009-.265 0-.397Z" fill-rule="evenodd" data-name="Path 242"/></g><path d="M215.777 296.648s-5.209-3.613-5.591-.36c-.383 3.255 5.59 2.79 5.59 2.79v-2.43Z" fill="#a5636d" fill-rule="evenodd" data-name="Path 243"/><path d="M224.757 294.252s-2.818 1.865-4.377 1.75c0 0-4.26.57-4.756.285-.496-.285-.797 4.13-.797 4.13l7.004-.493 4.49-.686s2.245-1.369 2.245-2.549-3.81-2.437-3.81-2.437Z" fill="#f7cddd" fill-rule="evenodd" data-name="Path 244"/><path d="M224.757 294.252s-2.818 1.865-4.377 1.75c0 0-4.26.57-4.756.285-.496-.285-.797 4.13-.797 4.13l7.004-.493 4.49-.686s2.245-1.369 2.245-2.549-3.81-2.437-3.81-2.437Z" fill-rule="evenodd" data-name="Path 245"/><path d="M220.624 303.656s-6.334-.262-4.916 2.694c1.42 2.956 6.22-.632 6.22-.632l-1.304-2.062Z" fill="#a5636d" fill-rule="evenodd" data-name="Path 246"/><path d="M226.996 297.372s-5.135-3.842-4.41-8.52c.723-4.679 4.41 3.58 4.41 3.58v4.94Z" fill="#5c5c8e" fill-rule="evenodd" data-name="Path 247"/><path d="M225.577 276.161a6.498 6.498 0 0 1-2.764 5.31 6.696 6.696 0 0 1-2.13.983c-.303.076-.61.13-.921.164a6.987 6.987 0 0 1-.675.034 6.331 6.331 0 0 1-2.14-.36 6.49 6.49 0 1 1 8.63-6.124Z" fill="#a5636d" fill-rule="evenodd" data-name="Path 248"/><path d="M250.206 305.783c-.582.107-1.3.301-1.3.603 0 .508-8.115 3.247-8.115 3.247s.304.708-.506 1.925c-.81 1.218-7.405 8.215-7.405 8.215l.021.209.085.806.402 3.854s-2.536-.912-3.348-.812c-.262.035-.538-.134-.81-.377.1-.46.283-.9.54-1.296 0 0 .657-.518 1.648-1.202v-12.931l17.229-4.183 1.56 1.554c.009.129.008.258-.001.388Z" fill-rule="evenodd" data-name="Path 249"/><path d="M250.935 305.068s-2.03.2-2.03.71c0 .507-8.114 3.246-8.114 3.246s.304.708-.506 1.926c-.81 1.217-7.405 8.216-7.405 8.216l.508 4.867s-2.536-.912-3.348-.811c-.359.045-.763-.29-1.095-.68a7.067 7.067 0 0 1-.731-1.043s.914-3.856-.304-4.768c-1.217-.912 1.319-7.606 1.319-7.606s1.146-4.76.808-6.802a2.454 2.454 0 0 0-.097-.402c0-.014-.009-.03-.014-.045-.719-1.95-8.506-18.319-8.506-18.319.005-.464.037-.928.097-1.388.016-.128.037-.26.06-.395.04-.242.093-.482.159-.719.041-.151.09-.3.147-.447.24-.618.609-1.094 1.159-1.104 0 0 .608-.674 2.036-.857 1.045-.137 2.538 0 4.558.857 4.765 2.025 5.882 2.13 5.882 2.13l2.394 3.143.492.644a62.12 62.12 0 0 1 4.887 7.418c.798 1.437 1.927 3.105 3.282 4.11 2.739 2.034 4.362 8.119 4.362 8.119Z" fill="#f7cddd" fill-rule="evenodd" data-name="Path 250"/><path d="M233.158 293.34s6.771 1.674 9.395 5.894l-9.395-5.894Z" fill-rule="evenodd" data-name="Path 251"/><path d="M235.25 300.756s1.281 8.597.926 9.244c-.356.646-.925-9.244-.925-9.244Z" fill-rule="evenodd" data-name="Path 252"/><path d="M234.793 305.168c-.492.645-2.491 5.629-2.491 5.629l.576 8.37.508 4.866s-2.534-.912-3.346-.811c-.359.044-.765-.29-1.095-.68.526-2.85 1.652-8.814 1.855-8.929.268-.153 1.638-4.944 1.71-6.286.072-1.341 1.976-4.332 1.976-4.332s.802 1.529.307 2.173Z" fill-rule="evenodd" data-name="Path 253"/><path d="M232.88 296.953c-.126.38-.32 2.587-.32 2.587-.14 1.943-1.616 2.579-2.523 2.783a2.448 2.448 0 0 0-.097-.402c-.609-1.722-8.52-18.357-8.52-18.357.008-.844.114-1.684.316-2.503 1.722-.507 4.448.273 4.448.273.789-.104 3.36 5.009 3.36 5.009s1.714 3.915 1.903 4.448c.188.534 0 1.408.075 1.714.075.305.876.567.99.988.113.42.04 1.257.115 1.406.075.149.38 1.674.253 2.054Z" fill-rule="evenodd" data-name="Path 254"/><path d="M232.271 296.648c-.126.38-.32 2.586-.32 2.586-.115 1.617-1.156 2.335-2.026 2.642-.391.14-.802.222-1.217.243l-1.223 1.063-5.649 4.158s-2.105-3.892-1.534-3.914c.572-.021 3.865-2.787 3.865-2.787 1.008-.539 2.017-2.335 2.486-3.258a2.842 2.842 0 0 1-.06-.334c-.204-1.723-4.464-8.317-4.464-8.317s-1.647-1.938-2.288-5.528c-.018-.083-.03-.167-.047-.254a2.578 2.578 0 0 1-.032-.337c-.077-1.381.928-1.884 2.121-2.003.623-.05 1.25-.03 1.868.058.616.077 1.226.197 1.826.359.51-.068 1.768 2.053 2.592 3.556.444.815.763 1.451.763 1.451s1.714 3.917 1.902 4.449c.189.531 0 1.41.076 1.713.075.304.876.57.99.99.112.42.039 1.257.114 1.406.076.149.384 1.677.257 2.058Z" fill="#f7cddd" fill-rule="evenodd" data-name="Path 255"/><path d="M238.823 287.873c-1.078 1.1-2.818 1.104-4.215.539-1.398-.566-2.581-1.579-3.876-2.367-.84-.514-1.732-.934-2.56-1.464-.122-.08-.24-.158-.359-.24-.955-.676-1.783-1.544-2.773-2.156a4.31 4.31 0 0 0-2.227-.718 2.532 2.532 0 0 0-1.24.31 4.578 4.578 0 0 0-.899.674c-.28.251-.547.519-.842.754-.018-.083-.03-.167-.047-.253a2.566 2.566 0 0 1-.032-.338 6.988 6.988 0 0 1-.675.034 6.331 6.331 0 0 1-2.14-.359c0-.027 0-.054-.016-.08-.242-1.28-.68-2.634-1.71-3.352-.596-.417-1.548-.587-2.374-.898a6.49 6.49 0 1 1 12.231.702c1.045-.136 2.538 0 4.558.857 4.765 2.026 5.882 2.13 5.882 2.13l2.394 3.143c-.258.395-.551.785-.578 1.246-.045.846.78 1.437 1.498 1.836Z" fill-rule="evenodd" data-name="Path 256"/><path d="M215.22 278.245c1.029.718 1.467 2.07 1.712 3.347.075.399.147.82.391 1.135.539.708 1.645.509 2.358 0 .713-.508 1.275-1.278 2.07-1.638 1.057-.477 2.3-.129 3.29.49.989.62 1.817 1.488 2.772 2.156.925.652 1.956 1.117 2.919 1.704 1.295.789 2.478 1.807 3.876 2.367 1.397.56 3.143.559 4.213-.538-.718-.399-1.543-.988-1.487-1.843.056-.855 1.05-1.492.984-2.369-.066-.876-1.097-1.22-1.837-1.65-1.545-.898-2.204-2.874-2.534-4.697-.257-1.426-.469-3.019-1.534-3.935-.688-.589-1.616-.781-2.31-1.365-.655-.555-1.02-1.394-1.436-2.168-.688-1.287-1.592-2.485-2.786-3.256-1.194-.77-2.714-1.077-4.025-.55-.503.2-.96.509-1.456.719-1.236.539-2.65.462-3.873 1.024-1.506.693-2.485 2.223-3.381 3.676-.758 1.245-2.262 3.44-1.836 5.056.424 1.643 2.793 1.555 3.91 2.335Z" fill="#4c3e42" fill-rule="evenodd" data-name="Path 257"/><g data-name="Group 17"><path d="M238.316 282.957a1.14 1.14 0 0 0-.034-.197c-.273.429-.612.846-.645 1.349-.006.116.003.233.03.346.303-.483.692-.937.65-1.498Z" fill-rule="evenodd" data-name="Path 258"/><path d="M234.911 286.495c-1.397-.56-2.579-1.578-3.874-2.367-.964-.587-1.995-1.052-2.92-1.704-.956-.675-1.784-1.543-2.773-2.155-.99-.613-2.23-.968-3.289-.492-.795.359-1.356 1.122-2.07 1.64-.715.517-1.81.718-2.359 0-.244-.317-.316-.737-.391-1.136-.242-1.277-.682-2.63-1.71-3.347-1.119-.782-3.488-.694-3.917-2.335a2.551 2.551 0 0 1-.056-.898c-.274.732-.416 1.469-.25 2.11.432 1.649 2.8 1.56 3.918 2.335 1.029.718 1.467 2.072 1.711 3.35.076.398.148.818.39 1.134.539.708 1.645.509 2.36-.009.715-.517 1.273-1.278 2.07-1.638 1.057-.475 2.3-.127 3.29.493.989.62 1.817 1.487 2.772 2.155.925.654 1.956 1.117 2.919 1.704 1.295.79 2.478 1.809 3.876 2.37 1.397.56 3.143.556 4.213-.54a5.159 5.159 0 0 1-.785-.519c-.973.358-2.135.246-3.125-.15Z" fill-rule="evenodd" data-name="Path 259"/></g><path d="m203.124 298.78 14.368-5.366a1.365 1.365 0 0 1 1.758.8 1.367 1.367 0 0 1-.803 1.759l-14.368 5.368-3.078-.309 2.123-2.252Z" fill="#5c5c8e" fill-rule="evenodd" data-name="Path 260"/><path d="M218.814 293.784a1.369 1.369 0 0 1-.803 1.76l-14.368 5.366-2.313-.232-.333.36 3.079.308 14.368-5.368a1.367 1.367 0 0 0 .802-1.758 1.361 1.361 0 0 0-.558-.683c.05.078.092.16.126.247Z" fill="#fff" fill-rule="evenodd" data-name="Path 261"/><path d="m203.124 298.78.957 2.561-2.527-.253-.553-.056.756-.8 1.367-1.452Z" fill="#efc8c4" fill-rule="evenodd" data-name="Path 262"/><path d="M201.755 300.231c.06.044.11.098.147.162a.231.231 0 0 1 0 .25.56.56 0 0 1-.14.098.458.458 0 0 0-.204.347l-.553-.056.75-.8Z" fill="#727a9c" fill-rule="evenodd" data-name="Path 263"/><path d="m190.582 271.03-2.422-1.182a.293.293 0 0 1-.135-.391l.257-.528a.29.29 0 0 1 .391-.135l1.633.796 1.704-3.495a.295.295 0 0 1 .392-.137l.528.259a.29.29 0 0 1 .135.391l-2.091 4.287a.293.293 0 0 1-.392.135Z" fill="#3acc6c" fill-rule="evenodd" data-name="Path 264"/><path d="m195.875 286.147-2.423-1.182a.293.293 0 0 1-.134-.391l.256-.528a.295.295 0 0 1 .394-.135l1.63.796 1.703-3.499a.295.295 0 0 1 .392-.136l.526.258a.293.293 0 0 1 .136.392l-2.09 4.287a.296.296 0 0 1-.393.134Z" fill="#3acc6c" fill-rule="evenodd" data-name="Path 265"/><path d="m193.5 278.695-2.424-1.181a.295.295 0 0 1-.136-.392l.258-.528a.29.29 0 0 1 .392-.135l1.633.796 1.704-3.5a.293.293 0 0 1 .391-.135l.528.257a.296.296 0 0 1 .135.393l-2.092 4.29a.293.293 0 0 1-.392.135Z" fill="#3acc6c" fill-rule="evenodd" data-name="Path 266"/><path d="m198.174 292.972-2.423-1.182a.293.293 0 0 1-.134-.392l.256-.528a.293.293 0 0 1 .392-.134l1.633.795 1.704-3.495a.296.296 0 0 1 .393-.136l.526.258a.29.29 0 0 1 .135.392l-2.089 4.287a.296.296 0 0 1-.393.135Z" fill="#3acc6c" fill-rule="evenodd" data-name="Path 267"/><path d="M107.595 339.373s1.068 1.397-.492 3.506c-1.561 2.108-2.85 3.89-2.335 5.208 0 0 2.356-3.917 4.273-3.97 1.916-.055.662-2.388-1.446-4.744Z" fill="#3acc6c" fill-rule="evenodd" data-name="Path 268"/><path d="M107.595 339.373c.093.135.167.282.219.438 1.87 2.198 2.873 4.25 1.069 4.31-1.676.047-3.686 3.043-4.165 3.8.014.06.033.12.055.179 0 0 2.357-3.917 4.273-3.971 1.916-.054.657-2.4-1.451-4.756Z" fill-rule="evenodd" data-name="Path 269"/><path d="M109.581 341.155c0 .49-.056.898-.124.898s-.122-.4-.122-.898c0-.5.068-.26.137-.26.068 0 .11-.233.11.26Z" fill="#ffd037" fill-rule="evenodd" data-name="Path 270"/><path d="M110.262 341.74c-.431.235-.808.379-.84.318-.033-.061.29-.298.718-.539.427-.24.26-.064.292 0 .033.065.263-.014-.17.221Z" fill="#ffd037" fill-rule="evenodd" data-name="Path 271"/><path d="M101.952 339.373s-1.067 1.397.494 3.506c1.56 2.108 2.848 3.89 2.334 5.208 0 0-2.354-3.917-4.272-3.97-1.918-.055-.665-2.388 1.444-4.744Z" fill="#3acc6c" fill-rule="evenodd" data-name="Path 272"/><path d="M101.952 339.373a1.762 1.762 0 0 0-.218.438c-1.871 2.198-2.873 4.25-1.068 4.31 1.674.047 3.683 3.043 4.165 3.8a1.385 1.385 0 0 1-.058.179s-2.354-3.934-4.276-3.987c-1.922-.054-.654-2.384 1.455-4.74Z" fill-rule="evenodd" data-name="Path 273"/><path d="M99.967 341.155c0 .49.054.898.122.898.069 0 .124-.4.124-.898 0-.5-.068-.26-.136-.26s-.11-.233-.11.26Z" fill="#ffd037" fill-rule="evenodd" data-name="Path 274"/><path d="M99.285 341.74c.433.235.808.379.84.318.033-.061-.29-.298-.718-.539-.428-.24-.262-.064-.295 0-.032.065-.258-.014.173.221Z" fill="#ffd037" fill-rule="evenodd" data-name="Path 275"/><path d="M93.606 356.956a11.17 1.713 0 1 1 0 .1z" fill="#518aff" fill-rule="evenodd" data-name="Ellipse 12"/><path d="m110.522 346.201-.054.437-.073.616-.033.257-.073.616-.034.257-.074.616-.855 7.004c-.077.625-1.099 1.113-2.335 1.113h-4.438c-1.233 0-2.254-.488-2.334-1.113L99.364 349l-.076-.616-.03-.257-.077-.616-.03-.257-.076-.616-.054-.437c-.042-.359.51-.653 1.208-.653h9.086c.7 0 1.252.3 1.207.653Z" fill="#65617d" fill-rule="evenodd" data-name="Path 276"/><path d="m110.47 346.638-.075.616H99.154l-.074-.616h11.39Z" fill="#9d9cb5" fill-rule="evenodd" data-name="Path 277"/><path d="m110.364 347.51-.075.617H99.26l-.075-.616h11.178Z" fill="#9d9cb5" fill-rule="evenodd" data-name="Path 278"/><path d="m110.256 348.384-.075.616H99.367l-.075-.616h10.964Z" fill="#9d9cb5" fill-rule="evenodd" data-name="Path 279"/></g><defs><linearGradient x1=".5" y1="1" x2=".5" y2="0" id="a"><stop stop-color="rgba(128,128,128,0.25098039215686274 )" offset="0"/><stop stop-color="rgba(128,128,128,0.12156862745098039 )" offset=".54"/><stop stop-color="rgba(128,128,128,0.10196078431372549 )" offset="1"/></linearGradient></defs></svg>